<svg width="375" height="812" viewBox="0 0 375 812" fill="none" xmlns="http://www.w3.org/2000/svg">
<rect width="375" height="812" fill="white"/>
<line y1="777.5" x2="375" y2="777.5" stroke="black" stroke-opacity="0.02"/>
<path d="M130.018 449.686C128.805 449.686 127.817 449.322 127.054 448.594C126.326 447.831 125.962 446.843 125.962 445.63V416.51C125.962 415.296 126.292 414.36 126.95 413.702C127.609 413.043 128.545 412.714 129.758 412.714H147.646C148.964 412.714 149.934 412.974 150.558 413.494C151.182 414.014 151.494 414.828 151.494 415.938C151.494 417.012 151.182 417.81 150.558 418.33C149.934 418.85 148.964 419.11 147.646 419.11H133.97V427.534H146.606C147.924 427.534 148.894 427.794 149.518 428.314C150.142 428.834 150.454 429.648 150.454 430.758C150.454 431.832 150.142 432.63 149.518 433.15C148.894 433.67 147.924 433.93 146.606 433.93H133.97V445.63C133.97 446.878 133.606 447.866 132.878 448.594C132.185 449.322 131.232 449.686 130.018 449.686Z" fill="black"/>
<path d="M161.13 449.686C159.986 449.686 159.033 449.374 158.27 448.75C157.542 448.126 157.178 447.207 157.178 445.994V416.146C157.178 414.932 157.542 414.014 158.27 413.39C159.033 412.766 159.986 412.454 161.13 412.454C162.239 412.454 163.158 412.766 163.886 413.39C164.649 414.014 165.03 414.932 165.03 416.146V445.994C165.03 447.207 164.649 448.126 163.886 448.75C163.158 449.374 162.239 449.686 161.13 449.686Z" fill="black"/>
<path d="M182.533 423.218C186.277 423.218 189.051 424.136 190.853 425.974C192.656 427.776 193.557 430.55 193.557 434.294V446.046C193.557 447.19 193.228 448.091 192.569 448.75C191.911 449.374 190.992 449.686 189.813 449.686C188.704 449.686 187.803 449.356 187.109 448.698C186.451 448.004 186.121 447.12 186.121 446.046V445.682C185.601 446.964 184.735 447.97 183.521 448.698C182.308 449.426 180.887 449.79 179.257 449.79C177.524 449.79 175.947 449.443 174.525 448.75C173.139 448.056 172.029 447.086 171.197 445.838C170.4 444.59 170.001 443.203 170.001 441.678C170.001 439.806 170.469 438.332 171.405 437.258C172.376 436.183 173.919 435.403 176.033 434.918C178.148 434.432 181.043 434.19 184.717 434.19H186.069V433.254C186.069 431.798 185.74 430.74 185.081 430.082C184.457 429.423 183.4 429.094 181.909 429.094C180.419 429.094 178.269 429.614 175.461 430.654C174.664 431.035 173.988 431.226 173.433 431.226C172.671 431.226 172.064 430.966 171.613 430.446C171.163 429.891 170.937 429.18 170.937 428.314C170.937 427.62 171.093 427.048 171.405 426.598C171.717 426.147 172.22 425.731 172.913 425.35C174.127 424.691 175.6 424.171 177.333 423.79C179.101 423.408 180.835 423.218 182.533 423.218ZM180.973 444.382C182.499 444.382 183.729 443.879 184.665 442.874C185.601 441.834 186.069 440.499 186.069 438.87V437.986H185.185C182.377 437.986 180.401 438.211 179.257 438.662C178.148 439.112 177.593 439.927 177.593 441.106C177.593 442.076 177.905 442.874 178.529 443.498C179.188 444.087 180.003 444.382 180.973 444.382Z" fill="black"/>
<path d="M209.1 449.79C206.985 449.79 205.148 449.616 203.588 449.27C202.028 448.923 200.659 448.368 199.48 447.606C198.96 447.294 198.561 446.878 198.284 446.358C198.007 445.838 197.868 445.248 197.868 444.59C197.868 443.792 198.093 443.134 198.544 442.614C198.995 442.059 199.549 441.782 200.208 441.782C200.659 441.782 201.109 441.868 201.56 442.042C202.011 442.18 202.479 442.354 202.964 442.562C203.935 443.012 204.888 443.376 205.824 443.654C206.76 443.896 207.921 444.018 209.308 444.018C210.521 444.018 211.457 443.827 212.116 443.446C212.809 443.064 213.156 442.544 213.156 441.886C213.156 441.4 213 441.019 212.688 440.742C212.411 440.43 211.873 440.152 211.076 439.91C210.279 439.667 209.013 439.372 207.28 439.026C204.195 438.436 201.976 437.552 200.624 436.374C199.272 435.195 198.596 433.548 198.596 431.434C198.596 429.874 199.064 428.47 200 427.222C200.971 425.974 202.288 425.003 203.952 424.31C205.616 423.582 207.488 423.218 209.568 423.218C211.059 423.218 212.515 423.408 213.936 423.79C215.357 424.171 216.623 424.708 217.732 425.402C218.807 426.06 219.344 427.031 219.344 428.314C219.344 429.146 219.119 429.839 218.668 430.394C218.217 430.948 217.663 431.226 217.004 431.226C216.207 431.226 215.253 430.914 214.144 430.29C213.277 429.839 212.48 429.51 211.752 429.302C211.059 429.059 210.227 428.938 209.256 428.938C208.181 428.938 207.332 429.146 206.708 429.562C206.084 429.943 205.772 430.48 205.772 431.174C205.772 431.902 206.136 432.456 206.864 432.838C207.592 433.219 208.996 433.6 211.076 433.982C213.399 434.432 215.219 434.987 216.536 435.646C217.853 436.27 218.807 437.067 219.396 438.038C219.985 439.008 220.28 440.239 220.28 441.73C220.28 444.191 219.257 446.15 217.212 447.606C215.201 449.062 212.497 449.79 209.1 449.79Z" fill="black"/>
<path d="M240.94 423.218C246.868 423.218 249.832 426.806 249.832 433.982V445.994C249.832 447.138 249.468 448.039 248.74 448.698C248.047 449.356 247.093 449.686 245.88 449.686C244.667 449.686 243.713 449.356 243.02 448.698C242.327 448.039 241.98 447.138 241.98 445.994V433.878C241.98 432.352 241.651 431.226 240.992 430.498C240.368 429.735 239.38 429.354 238.028 429.354C236.399 429.354 235.081 429.874 234.076 430.914C233.105 431.954 232.62 433.34 232.62 435.074V445.994C232.62 447.138 232.273 448.039 231.58 448.698C230.887 449.356 229.933 449.686 228.72 449.686C227.507 449.686 226.536 449.356 225.808 448.698C225.115 448.039 224.768 447.138 224.768 445.994V416.042C224.768 414.967 225.132 414.1 225.86 413.442C226.623 412.783 227.611 412.454 228.824 412.454C229.968 412.454 230.887 412.766 231.58 413.39C232.273 414.014 232.62 414.846 232.62 415.886V427.222C233.521 425.904 234.683 424.916 236.104 424.258C237.525 423.564 239.137 423.218 240.94 423.218Z" fill="black"/>
<path d="M132.416 465.919C132.326 465.163 131.963 464.576 131.327 464.159C130.69 463.741 129.91 463.532 128.985 463.532C127.971 463.532 127.156 463.773 126.539 464.256C125.923 464.733 125.614 465.337 125.614 466.068C125.614 466.615 125.781 467.057 126.114 467.395C126.452 467.728 126.85 467.989 127.307 468.178C127.77 468.362 128.19 468.504 128.567 468.603L130.119 469.021C130.516 469.125 130.959 469.269 131.446 469.453C131.938 469.637 132.408 469.888 132.855 470.207C133.308 470.52 133.681 470.922 133.974 471.415C134.267 471.907 134.414 472.511 134.414 473.227C134.414 474.052 134.198 474.798 133.765 475.464C133.338 476.13 132.711 476.66 131.886 477.052C131.066 477.445 130.069 477.642 128.896 477.642C127.255 477.642 125.952 477.254 124.988 476.478C124.023 475.703 123.496 474.688 123.407 473.436H125.316C125.366 474.012 125.56 474.49 125.898 474.867C126.241 475.24 126.673 475.519 127.195 475.703C127.722 475.882 128.289 475.971 128.896 475.971C129.602 475.971 130.235 475.857 130.797 475.628C131.359 475.394 131.804 475.071 132.132 474.659C132.46 474.241 132.624 473.754 132.624 473.197C132.624 472.69 132.483 472.277 132.199 471.959C131.916 471.641 131.543 471.382 131.081 471.183C130.618 470.985 130.119 470.811 129.582 470.661L127.702 470.124C126.509 469.781 125.565 469.292 124.869 468.655C124.173 468.019 123.825 467.186 123.825 466.157C123.825 465.302 124.056 464.556 124.518 463.92C124.985 463.279 125.612 462.781 126.397 462.428C127.188 462.071 128.07 461.892 129.045 461.892C130.029 461.892 130.904 462.068 131.67 462.421C132.435 462.769 133.042 463.246 133.489 463.853C133.942 464.459 134.18 465.148 134.205 465.919H132.416Z" fill="black"/>
<path d="M151.32 463.741V462.1H162.774V463.741H157.972V477.373H156.122V463.741H151.32Z" fill="black"/>
<path d="M190.351 462.1H192.201V472.213C192.201 473.356 191.93 474.333 191.388 475.143C190.846 475.954 190.125 476.573 189.225 477C188.325 477.428 187.338 477.642 186.265 477.642C185.191 477.642 184.204 477.428 183.304 477C182.404 476.573 181.683 475.954 181.141 475.143C180.599 474.333 180.328 473.356 180.328 472.213V462.1H182.178V472.213C182.178 473.008 182.367 473.682 182.745 474.234C183.123 474.78 183.622 475.198 184.244 475.486C184.865 475.77 185.539 475.911 186.265 475.911C186.99 475.911 187.664 475.77 188.285 475.486C188.907 475.198 189.407 474.78 189.784 474.234C190.162 473.682 190.351 473.008 190.351 472.213V462.1Z" fill="black"/>
<path d="M215.307 477.373H210.594V462.1H215.516C216.997 462.1 218.265 462.406 219.319 463.018C220.373 463.624 221.181 464.497 221.743 465.635C222.304 466.769 222.585 468.126 222.585 469.707C222.585 471.298 222.302 472.667 221.735 473.816C221.168 474.959 220.343 475.839 219.259 476.456C218.176 477.067 216.858 477.373 215.307 477.373ZM212.443 475.732H215.188C217.082 475.732 218.489 475.196 219.409 474.122C220.333 473.043 220.796 471.571 220.796 469.707C220.796 467.857 220.343 466.401 219.438 465.337C218.534 464.273 217.186 463.741 215.396 463.741H212.443V475.732Z" fill="black"/>
<path d="M238.357 462.1H240.475L244.711 469.23H244.89L249.126 462.1H251.244L245.725 471.079V477.373H243.876V471.079L238.357 462.1Z" fill="black"/>
<path d="M191.355 388.55C190.344 390.248 189.923 392.356 190.168 394.497C190.412 396.638 191.306 398.67 192.689 400.228C194.071 401.786 195.852 402.767 197.71 402.996C199.568 403.225 201.382 402.685 202.826 401.475C209.312 396.018 221.286 383.498 221.608 365.175L210.544 360.756L193.7 372.566C195.433 379.103 193.701 384.566 191.353 388.541L191.355 388.55Z" fill="url(#paint0_linear)"/>
<path d="M242.255 338.484C243.497 335.203 243.962 331.678 243.613 328.187C243.263 324.696 242.109 321.333 240.241 318.363C238.372 315.392 235.841 312.895 232.844 311.067C229.848 309.238 226.468 308.128 222.97 307.825C221.894 304.332 219.989 301.151 217.418 298.552C214.848 295.952 211.688 294.011 208.206 292.894C204.724 291.776 201.024 291.515 197.42 292.133C193.815 292.75 190.413 294.228 187.503 296.441C184.592 294.228 181.19 292.75 177.586 292.133C173.981 291.515 170.281 291.776 166.799 292.894C163.317 294.011 160.156 295.952 157.586 298.552C155.015 301.151 153.11 304.332 152.033 307.825C148.535 308.128 145.155 309.237 142.159 311.066C139.162 312.894 136.631 315.392 134.762 318.362C132.894 321.333 131.74 324.696 131.391 328.187C131.042 331.678 131.507 335.203 132.75 338.484C129.113 340.446 126.234 343.565 124.57 347.346C122.907 351.128 122.553 355.356 123.566 359.362C124.579 363.367 126.9 366.92 130.161 369.458C133.423 371.995 137.439 373.373 141.573 373.373H233.431C237.564 373.372 241.579 371.994 244.84 369.456C248.1 366.918 250.421 363.366 251.434 359.361C252.447 355.357 252.094 351.129 250.431 347.348C248.769 343.566 245.891 340.447 242.255 338.484Z" fill="url(#paint1_linear)"/>
<path d="M208.616 308.447C207.177 306.962 205.359 305.899 203.359 305.371C202.693 305.188 202.126 304.751 201.779 304.155C201.432 303.558 201.334 302.849 201.505 302.181C201.676 301.513 202.103 300.938 202.694 300.581C203.285 300.224 203.993 300.113 204.665 300.272C207.61 301.034 210.286 302.596 212.396 304.785C212.646 305.031 212.844 305.325 212.979 305.649C213.114 305.972 213.183 306.32 213.182 306.67C213.181 307.021 213.109 307.368 212.972 307.691C212.835 308.013 212.634 308.305 212.382 308.55C212.13 308.794 211.832 308.985 211.505 309.113C211.178 309.24 210.829 309.301 210.478 309.292C210.127 309.283 209.782 309.203 209.462 309.059C209.142 308.914 208.854 308.707 208.616 308.45V308.447Z" fill="white"/>
<path d="M189.163 307.566C188.747 307.006 188.57 306.304 188.672 305.613C188.774 304.923 189.146 304.302 189.707 303.885C190.874 302.996 192.111 302.202 193.405 301.511C194.025 301.202 194.741 301.149 195.4 301.363C196.058 301.578 196.606 302.043 196.923 302.658C197.241 303.272 197.304 303.987 197.098 304.648C196.892 305.308 196.434 305.861 195.823 306.187C194.783 306.748 193.788 307.391 192.849 308.109C192.572 308.316 192.256 308.465 191.921 308.55C191.585 308.634 191.236 308.652 190.894 308.601C190.551 308.551 190.222 308.433 189.925 308.256C189.628 308.078 189.369 307.844 189.163 307.566Z" fill="white"/>
<path d="M154.313 336.883C152.418 335.419 150.293 334.279 148.024 333.511C149.747 332.235 151.264 330.526 151.971 328.253C152.048 328.005 152.076 327.745 152.052 327.487C152.028 327.229 151.954 326.978 151.833 326.749C151.712 326.519 151.548 326.316 151.348 326.15C151.149 325.984 150.919 325.859 150.671 325.782C150.423 325.706 150.163 325.678 149.904 325.702C149.646 325.726 149.395 325.8 149.165 325.92C148.936 326.041 148.732 326.206 148.566 326.405C148.4 326.604 148.275 326.834 148.198 327.082C147.496 329.341 145.235 330.809 143.46 331.655C142.874 331.93 142.274 332.174 141.662 332.386C141.474 332.386 141.286 332.374 141.096 332.374C137.815 332.37 134.577 333.115 131.629 334.551C131.861 335.879 132.218 337.182 132.695 338.443C135.701 336.819 139.114 336.102 142.521 336.38C145.927 336.659 149.179 337.92 151.881 340.011C152.297 340.32 152.818 340.455 153.332 340.384C153.846 340.314 154.311 340.045 154.629 339.635C154.946 339.225 155.09 338.707 155.029 338.193C154.968 337.678 154.707 337.208 154.302 336.883H154.313Z" fill="white"/>
<path d="M185.126 316.405C182.842 316.392 181.417 315.881 180.529 315.271C180.073 314.95 179.719 314.505 179.507 313.99C179.295 313.475 179.235 312.91 179.333 312.362C180.278 307.004 183.212 302.2 187.548 298.909C186.436 298.066 185.247 297.33 183.995 296.714C179.28 300.745 176.194 306.351 175.31 312.488C175.225 313.097 175.003 313.68 174.661 314.192C174.319 314.704 173.865 315.132 173.334 315.444C172.419 315.977 171.073 316.392 169.101 316.403C168.035 316.403 167.088 317.226 167.046 318.298C167.035 318.564 167.078 318.829 167.172 319.078C167.267 319.326 167.41 319.553 167.594 319.745C167.779 319.937 168 320.089 168.245 320.194C168.49 320.298 168.753 320.352 169.019 320.352C173.35 320.352 175.786 318.88 177.111 317.528C178.436 318.88 180.874 320.352 185.203 320.352C185.469 320.352 185.732 320.298 185.977 320.194C186.221 320.09 186.443 319.937 186.627 319.746C186.811 319.554 186.955 319.327 187.049 319.079C187.144 318.83 187.187 318.566 187.176 318.3C187.136 317.235 186.196 316.41 185.123 316.405H185.126Z" fill="white"/>
<path d="M233.998 332.374C233.152 332.375 232.306 332.425 231.465 332.525C229.221 329.882 225.395 327.215 218.968 326.704C218.445 326.662 217.928 326.829 217.529 327.169C217.13 327.508 216.883 327.992 216.841 328.514C216.799 329.036 216.967 329.552 217.307 329.951C217.647 330.349 218.131 330.596 218.653 330.638C222.416 330.936 225.048 332.111 226.883 333.572C224.684 334.339 222.623 335.458 220.781 336.883C220.377 337.208 220.116 337.678 220.055 338.193C219.994 338.707 220.137 339.225 220.455 339.635C220.772 340.045 221.238 340.314 221.752 340.384C222.266 340.454 222.787 340.32 223.203 340.011C225.905 337.92 229.156 336.659 232.563 336.38C235.969 336.102 239.383 336.819 242.388 338.443C242.866 337.182 243.223 335.878 243.454 334.55C240.506 333.114 237.268 332.37 233.988 332.374H233.998Z" fill="white"/>
<path d="M224.426 356.69C222.673 362.232 219.251 364.568 216.579 365.551C215.006 363.211 214.02 360.527 213.705 357.726C213.68 357.467 213.603 357.215 213.479 356.985C213.356 356.755 213.188 356.552 212.985 356.387C212.783 356.222 212.55 356.099 212.299 356.025C212.049 355.951 211.786 355.928 211.527 355.956C211.267 355.984 211.015 356.063 210.787 356.189C210.558 356.315 210.356 356.484 210.194 356.688C210.031 356.893 209.91 357.127 209.839 357.378C209.767 357.629 209.746 357.891 209.777 358.15C210.121 361.19 211.106 364.122 212.668 366.753C214.23 369.384 216.333 371.654 218.837 373.413H231.272C226.816 373.416 222.525 371.73 219.264 368.696C222.284 367.276 226.174 364.259 228.192 357.882C228.27 357.635 228.299 357.375 228.277 357.117C228.254 356.859 228.181 356.607 228.062 356.377C227.942 356.147 227.778 355.943 227.58 355.776C227.381 355.609 227.152 355.483 226.904 355.405C226.657 355.327 226.396 355.298 226.138 355.32C225.879 355.343 225.628 355.416 225.397 355.535C225.167 355.655 224.963 355.818 224.796 356.017C224.629 356.215 224.502 356.444 224.424 356.692L224.426 356.69Z" fill="white"/>
<path fill-rule="evenodd" clip-rule="evenodd" d="M155.771 345.054C150.799 345.054 146.769 349.052 146.769 353.983C146.769 358.913 150.799 362.911 155.771 362.911C160.742 362.911 164.772 358.913 164.772 353.983C164.772 349.052 160.742 345.054 155.771 345.054ZM145.755 353.983C145.755 348.495 150.24 344.047 155.771 344.047C161.301 344.047 165.786 348.495 165.786 353.983C165.786 359.47 161.301 363.918 155.771 363.918C150.24 363.918 145.755 359.47 145.755 353.983Z" fill="white"/>
<path fill-rule="evenodd" clip-rule="evenodd" d="M188.141 345.054C183.17 345.054 179.14 349.052 179.14 353.983C179.14 358.913 183.17 362.911 188.141 362.911C193.113 362.911 197.143 358.913 197.143 353.983C197.143 349.052 193.113 345.054 188.141 345.054ZM178.126 353.983C178.126 348.495 182.61 344.047 188.141 344.047C193.672 344.047 198.157 348.495 198.157 353.983C198.157 359.47 193.672 363.918 188.141 363.918C182.61 363.918 178.126 359.47 178.126 353.983Z" fill="white"/>
<path d="M157.295 359.103C160.262 359.103 162.667 356.7 162.667 353.736C162.667 350.772 160.262 348.369 157.295 348.369C154.328 348.369 151.923 350.772 151.923 353.736C151.923 356.7 154.328 359.103 157.295 359.103Z" fill="#383842"/>
<path d="M188.141 359.591C191.283 359.591 193.83 357.08 193.83 353.982C193.83 350.885 191.283 348.374 188.141 348.374C185 348.374 182.453 350.885 182.453 353.982C182.453 357.08 185 359.591 188.141 359.591Z" fill="#383842"/>
<path d="M171.956 364.078C170.287 364.068 168.685 363.398 167.476 362.206C167.228 361.967 167.081 361.636 167.069 361.285C167.056 360.935 167.178 360.593 167.408 360.336C167.638 360.079 167.957 359.927 168.295 359.913C168.633 359.9 168.963 360.027 169.211 360.266C170.827 361.819 173.084 361.819 174.699 360.266C174.947 360.027 175.276 359.9 175.614 359.913C175.952 359.926 176.272 360.078 176.502 360.335C176.732 360.592 176.855 360.934 176.842 361.285C176.83 361.635 176.683 361.967 176.435 362.206C175.226 363.398 173.624 364.067 171.956 364.078Z" fill="#383842"/>
<path fill-rule="evenodd" clip-rule="evenodd" d="M164.816 353.946C164.816 353.946 164.816 353.946 164.817 353.945L164.817 353.945C164.816 353.946 164.816 353.946 164.816 353.946ZM164.824 353.938C164.821 353.941 164.818 353.944 164.817 353.945L165.626 354.599C165.616 354.609 165.603 354.622 165.589 354.636C165.582 354.643 165.569 354.655 165.551 354.67C165.542 354.676 165.526 354.689 165.503 354.704L165.502 354.704C165.489 354.713 165.43 354.751 165.343 354.773C165.29 354.784 165.151 354.789 165.068 354.776C164.959 354.738 164.78 354.603 164.719 354.512C164.688 354.439 164.665 354.314 164.665 354.265C164.668 354.233 164.678 354.179 164.684 354.158C164.703 354.094 164.733 354.047 164.736 354.042C164.736 354.042 164.736 354.041 164.736 354.041C164.752 354.016 164.768 353.995 164.774 353.986C164.806 353.945 164.857 353.886 164.92 353.819C165.051 353.679 165.265 353.47 165.558 353.228C166.145 352.745 167.061 352.124 168.283 351.677C170.76 350.77 174.396 350.617 178.927 353.559L178.315 354.377C174.061 351.616 170.8 351.827 168.674 352.605C167.595 353 166.784 353.55 166.267 353.976C166.009 354.188 165.828 354.367 165.726 354.475C165.701 354.502 165.681 354.524 165.667 354.541C165.653 354.557 165.647 354.565 165.646 354.566C165.646 354.566 165.646 354.566 165.646 354.566C165.646 354.565 165.648 354.563 165.651 354.559C165.653 354.556 165.659 354.548 165.666 354.536C165.67 354.53 165.676 354.519 165.683 354.505C165.689 354.495 165.703 354.465 165.715 354.425C165.721 354.404 165.731 354.351 165.734 354.319C165.734 354.27 165.711 354.145 165.68 354.073C165.619 353.982 165.44 353.847 165.331 353.809C165.248 353.796 165.11 353.801 165.057 353.812C164.971 353.834 164.912 353.871 164.899 353.88C164.899 353.88 164.899 353.88 164.898 353.88C164.877 353.894 164.861 353.906 164.854 353.912C164.838 353.925 164.828 353.935 164.824 353.938Z" fill="white"/>
<mask id="mask0" style="mask-type:alpha" maskUnits="userSpaceOnUse" x="143" y="262" width="85" height="70">
<rect x="143.031" y="262" width="84.4509" height="69.5478" fill="#C4C4C4"/>
</mask>
<g mask="url(#mask0)">
<path d="M179.9 274.132L173.824 267.678C173.103 266.921 172.111 266.478 171.066 266.445C170.02 266.413 169.004 266.795 168.239 267.507L149.658 284.974C148.9 285.694 148.457 286.685 148.425 287.731C148.394 288.776 148.776 289.792 149.49 290.558L161.33 303.149L161.488 281.878C161.504 279.788 162.35 277.79 163.84 276.323C165.33 274.857 167.342 274.043 169.433 274.059L179.9 274.132Z" fill="url(#paint2_linear)"/>
<path d="M212.479 274.629L187.781 268.146C186.766 267.884 185.69 268.034 184.787 268.564C183.883 269.093 183.226 269.958 182.96 270.97L182.178 273.92L194.515 274.028C196.606 274.046 198.606 274.893 200.074 276.383C201.542 277.873 202.359 279.885 202.344 281.975L202.052 321.229C202.471 321.141 202.873 320.988 203.245 320.776C203.695 320.516 204.088 320.169 204.402 319.756C204.716 319.343 204.945 318.871 205.075 318.368L215.274 279.447C215.41 278.948 215.444 278.426 215.377 277.913C215.309 277.4 215.141 276.905 214.881 276.457C214.621 276.009 214.275 275.617 213.863 275.303C213.451 274.989 212.981 274.76 212.479 274.629Z" fill="url(#paint3_linear)"/>
<path d="M166.127 326.919C165.333 326.485 164.671 325.844 164.211 325.064C163.752 324.285 163.512 323.396 163.517 322.491L163.722 280.973C163.731 279.644 164.267 278.373 165.212 277.439C166.157 276.505 167.435 275.984 168.765 275.991L195.42 276.147C196.079 276.151 196.731 276.284 197.338 276.54C197.946 276.795 198.497 277.168 198.96 277.636C199.424 278.104 199.79 278.659 200.039 279.269C200.288 279.879 200.414 280.531 200.411 281.19L200.192 322.703C200.183 324.032 199.647 325.303 198.702 326.237C197.757 327.171 196.479 327.692 195.149 327.686L168.506 327.536C167.675 327.53 166.857 327.318 166.127 326.919Z" fill="url(#paint4_linear)"/>
<path d="M197.344 277.235C197.883 277.532 198.332 277.968 198.644 278.498C198.955 279.028 199.118 279.633 199.114 280.248L198.897 322.975C198.895 323.423 198.804 323.867 198.63 324.28C198.456 324.693 198.203 325.067 197.884 325.382C197.565 325.697 197.187 325.946 196.772 326.115C196.357 326.284 195.912 326.37 195.464 326.367L168.031 326.203C167.466 326.202 166.911 326.059 166.416 325.788C165.874 325.492 165.422 325.056 165.108 324.525C164.794 323.994 164.63 323.388 164.633 322.771L164.861 280.05C164.863 279.602 164.954 279.159 165.127 278.746C165.301 278.333 165.554 277.959 165.873 277.644C166.191 277.329 166.569 277.08 166.984 276.911C167.399 276.742 167.843 276.656 168.291 276.659L195.725 276.82C196.291 276.823 196.846 276.967 197.342 277.237L197.344 277.235ZM199.018 274.171C198.013 273.623 196.888 273.333 195.744 273.326L168.309 273.162C166.477 273.153 164.717 273.871 163.415 275.158C162.113 276.445 161.375 278.196 161.363 280.027L161.146 322.755C161.137 324.586 161.857 326.347 163.147 327.649C164.436 328.951 166.19 329.689 168.022 329.7L195.463 329.871C197.295 329.879 199.055 329.161 200.357 327.874C201.659 326.587 202.397 324.836 202.408 323.005L202.629 280.276C202.637 279.027 202.305 277.8 201.669 276.724C201.033 275.648 200.117 274.765 199.019 274.168L199.018 274.171Z" fill="white"/>
<path d="M182.094 308.336L181.056 308.322C180.705 308.318 180.367 308.454 180.117 308.699C179.866 308.945 179.723 309.279 179.719 309.63L179.703 311.062C179.699 311.413 179.835 311.751 180.081 312.002C180.326 312.253 180.661 312.397 181.013 312.402L182.048 312.415C182.4 312.419 182.738 312.283 182.989 312.038C183.24 311.793 183.384 311.458 183.388 311.107L183.404 309.676C183.408 309.325 183.272 308.986 183.026 308.735C182.781 308.484 182.445 308.34 182.094 308.336Z" fill="white"/>
<path d="M174.904 297.164L176.816 297.426C177.11 297.466 177.409 297.406 177.665 297.255C177.921 297.105 178.118 296.873 178.226 296.597C178.466 295.943 178.869 295.361 179.396 294.906C180.136 294.315 181.065 294.013 182.011 294.055C183.086 294.067 183.94 294.361 184.573 294.935C184.869 295.185 185.107 295.499 185.268 295.852C185.429 296.205 185.509 296.589 185.504 296.977C185.497 297.544 185.302 298.091 184.949 298.534C184.713 298.831 183.995 299.452 182.795 300.397C181.594 301.342 180.791 302.201 180.385 302.974C179.998 303.765 179.789 304.631 179.773 305.511C179.764 305.69 179.791 305.868 179.852 306.036C179.914 306.204 180.008 306.358 180.131 306.488C180.253 306.619 180.4 306.723 180.564 306.795C180.728 306.867 180.904 306.905 181.083 306.907L182.163 306.919C182.497 306.924 182.82 306.803 183.068 306.58C183.317 306.357 183.471 306.048 183.501 305.716C183.525 305.331 183.613 304.954 183.763 304.599C183.979 304.164 184.52 303.596 185.387 302.897C187.07 301.539 188.169 300.461 188.686 299.664C189.191 298.913 189.466 298.031 189.478 297.126C189.499 295.505 188.824 294.074 187.453 292.833C186.082 291.592 184.223 290.961 181.876 290.939C179.652 290.912 177.85 291.493 176.47 292.683C175.347 293.602 174.581 294.884 174.304 296.308C174.283 296.404 174.283 296.503 174.302 296.599C174.322 296.695 174.361 296.786 174.418 296.866C174.474 296.947 174.546 297.015 174.63 297.066C174.714 297.117 174.807 297.15 174.904 297.164Z" fill="white"/>
</g>
<path d="M55 524H56.5852L57.5568 518.145H63.233L63.4631 516.739H57.7869L58.5284 512.315H64.7926L65.0227 510.909H57.1733L55 524Z" fill="black"/>
<path d="M69.0417 510.909H67.5332L65.3599 524H66.8684L69.0417 510.909Z" fill="black"/>
<path d="M72.495 524.23C74.2081 524.23 75.2564 523.31 75.6655 522.67H75.7422L75.5121 524H77.0206L78.0945 517.531C78.6058 514.412 76.3047 514.054 75.0518 514.054C73.5689 514.054 71.7791 514.565 70.7308 516.355L72.0604 516.866C72.5206 516.151 73.4922 515.383 74.924 515.383C76.3047 515.383 76.8161 516.125 76.6115 517.378V517.429C76.4837 518.145 75.7422 518.094 73.9268 518.324C72.0604 518.554 70.0149 518.963 69.6314 521.213C69.3246 523.131 70.6286 524.23 72.495 524.23ZM72.9297 522.875C71.728 522.875 70.9609 522.338 71.1399 521.29C71.3189 520.139 72.4439 519.781 73.6456 519.628C74.2848 519.551 76.0234 519.372 76.3303 519.065L76.1001 520.446C75.8956 521.673 74.7195 522.875 72.9297 522.875Z" fill="black"/>
<path d="M88.0069 516.381C87.7512 514.974 86.8564 514.054 84.9132 514.054C82.8422 514.054 81.1035 515.23 80.8223 516.892C80.5922 518.247 81.2569 519.142 82.9956 519.577L84.5552 519.96C85.5268 520.19 85.9103 520.651 85.7825 521.341C85.6547 522.185 84.6319 522.875 83.2257 522.875C81.9984 522.875 81.3081 522.338 81.2314 521.29L79.7228 521.648C79.7995 523.31 81.0268 524.205 83.0467 524.205C85.3223 524.205 87.0865 522.952 87.3677 521.264C87.5978 519.883 86.8819 519.04 85.1944 518.605L83.7882 518.247C82.6887 517.966 82.2285 517.557 82.3564 516.815C82.4842 515.972 83.4814 515.358 84.6831 515.358C86.0126 515.358 86.4217 516.074 86.5751 516.764L88.0069 516.381Z" fill="black"/>
<path d="M91.6584 518.094C91.9652 516.381 93.218 515.409 94.701 515.409C96.1072 515.409 96.8232 516.304 96.5675 517.864L95.5447 524H97.0533L98.1016 517.761C98.5107 515.23 97.3601 514.054 95.3658 514.054C93.8061 514.054 92.8089 514.693 92.1953 515.716H92.0675L92.8601 510.909H91.3516L89.1783 524H90.6868L91.6584 518.094Z" fill="black"/>
<path d="M103.776 524.205C105.943 524.205 107.579 522.875 108.148 521.136H106.64C106.173 522.21 105.176 522.849 104.006 522.849C102.21 522.849 101.29 521.366 101.68 519.091C102.031 516.866 103.463 515.409 105.233 515.409C106.557 515.409 107.221 516.227 107.305 517.122H108.813C108.858 515.281 107.503 514.054 105.438 514.054C102.773 514.054 100.65 516.151 100.171 519.142C99.6788 522.082 101.008 524.205 103.776 524.205Z" fill="black"/>
<path d="M112.731 524.23C114.444 524.23 115.493 523.31 115.902 522.67H115.979L115.748 524H117.257L118.331 517.531C118.842 514.412 116.541 514.054 115.288 514.054C113.805 514.054 112.015 514.565 110.967 516.355L112.297 516.866C112.757 516.151 113.729 515.383 115.16 515.383C116.541 515.383 117.052 516.125 116.848 517.378V517.429C116.72 518.145 115.979 518.094 114.163 518.324C112.297 518.554 110.251 518.963 109.868 521.213C109.561 523.131 110.865 524.23 112.731 524.23ZM113.166 522.875C111.964 522.875 111.197 522.338 111.376 521.29C111.555 520.139 112.68 519.781 113.882 519.628C114.521 519.551 116.26 519.372 116.567 519.065L116.336 520.446C116.132 521.673 114.956 522.875 113.166 522.875Z" fill="black"/>
<path d="M120.01 524H121.519L122.542 517.787C122.772 516.457 123.973 515.486 125.405 515.486C125.814 515.486 126.223 515.562 126.326 515.588L126.581 514.054C126.402 514.028 126.019 514.028 125.789 514.028C124.613 514.028 123.462 514.693 122.951 515.665H122.848L123.104 514.182H121.647L120.01 524Z" fill="black"/>
<path d="M130.151 524.205C132.037 524.205 132.874 523.028 133.296 522.491H133.475L133.219 524H134.677L136.85 510.909H135.342L134.536 515.741H134.408C134.165 515.23 133.769 514.054 131.852 514.054C129.371 514.054 127.332 516.023 126.815 519.116C126.303 522.236 127.69 524.205 130.151 524.205ZM130.522 522.849C128.63 522.849 127.984 521.187 128.336 519.091C128.675 517.02 129.838 515.409 131.749 515.409C133.597 515.409 134.376 516.892 134.012 519.091C133.641 521.315 132.337 522.849 130.522 522.849Z" fill="black"/>
<path d="M145.874 516.381C145.618 514.974 144.724 514.054 142.78 514.054C140.709 514.054 138.971 515.23 138.689 516.892C138.459 518.247 139.124 519.142 140.863 519.577L142.422 519.96C143.394 520.19 143.778 520.651 143.65 521.341C143.522 522.185 142.499 522.875 141.093 522.875C139.866 522.875 139.175 522.338 139.099 521.29L137.59 521.648C137.667 523.31 138.894 524.205 140.914 524.205C143.189 524.205 144.954 522.952 145.235 521.264C145.465 519.883 144.749 519.04 143.062 518.605L141.655 518.247C140.556 517.966 140.096 517.557 140.224 516.815C140.351 515.972 141.349 515.358 142.55 515.358C143.88 515.358 144.289 516.074 144.442 516.764L145.874 516.381Z" fill="black"/>
<path d="M154.972 524.23C156.685 524.23 157.733 523.31 158.142 522.67H158.219L157.989 524H159.497L160.571 517.531C161.082 514.412 158.781 514.054 157.528 514.054C156.045 514.054 154.256 514.565 153.207 516.355L154.537 516.866C154.997 516.151 155.969 515.383 157.401 515.383C158.781 515.383 159.293 516.125 159.088 517.378V517.429C158.96 518.145 158.219 518.094 156.403 518.324C154.537 518.554 152.491 518.963 152.108 521.213C151.801 523.131 153.105 524.23 154.972 524.23ZM155.406 522.875C154.205 522.875 153.438 522.338 153.616 521.29C153.795 520.139 154.92 519.781 156.122 519.628C156.761 519.551 158.5 519.372 158.807 519.065L158.577 520.446C158.372 521.673 157.196 522.875 155.406 522.875Z" fill="black"/>
<path d="M164.731 518.094C165.037 516.381 166.239 515.409 167.697 515.409C169.103 515.409 169.793 516.33 169.537 517.864L168.515 524H170.023L171.072 517.761C171.481 515.256 170.33 514.054 168.361 514.054C166.878 514.054 165.83 514.719 165.216 515.716H165.089L165.344 514.182H163.887L162.251 524H163.759L164.731 518.094Z" fill="black"/>
<path d="M176.487 524.205C178.373 524.205 179.21 523.028 179.632 522.491H179.811L179.555 524H181.013L183.186 510.909H181.678L180.872 515.741H180.744C180.501 515.23 180.105 514.054 178.188 514.054C175.707 514.054 173.668 516.023 173.151 519.116C172.639 522.236 174.026 524.205 176.487 524.205ZM176.858 522.849C174.966 522.849 174.32 521.187 174.672 519.091C175.011 517.02 176.174 515.409 178.085 515.409C179.933 515.409 180.712 516.892 180.348 519.091C179.977 521.315 178.673 522.849 176.858 522.849Z" fill="black"/>
<path d="M189.04 524H190.548L191.571 517.864C191.801 516.432 193.028 515.409 194.204 515.409C195.355 515.409 196.02 516.151 195.841 517.276L194.716 524H196.25L197.324 517.608C197.528 516.33 198.474 515.409 199.855 515.409C200.929 515.409 201.747 515.972 201.517 517.429L200.417 524H201.926L203.025 517.429C203.409 515.128 202.335 514.054 200.596 514.054C199.19 514.054 198.04 514.693 197.375 515.716H197.273C196.966 514.668 196.199 514.054 194.92 514.054C193.642 514.054 192.594 514.668 192.006 515.716H191.878L192.133 514.182H190.676L189.04 524Z" fill="black"/>
<path d="M208.775 524.205C210.776 524.205 212.387 523.207 213.096 521.724L211.715 521.315C211.159 522.338 210.213 522.849 209.005 522.849C207.113 522.849 206.103 522.006 206.468 519.602H213.607L213.71 518.963C214.33 515.307 212.361 514.054 210.309 514.054C207.656 514.054 205.534 516.151 205.042 519.168C204.537 522.185 205.943 524.205 208.775 524.205ZM206.678 518.298C206.979 516.905 208.43 515.409 210.079 515.409C211.722 515.409 212.566 516.636 212.278 518.298H206.678Z" fill="black"/>
<path d="M215.196 524H216.704L217.727 517.864C217.957 516.432 219.184 515.409 220.361 515.409C221.511 515.409 222.176 516.151 221.997 517.276L220.872 524H222.406L223.48 517.608C223.684 516.33 224.631 515.409 226.011 515.409C227.085 515.409 227.903 515.972 227.673 517.429L226.574 524H228.082L229.182 517.429C229.565 515.128 228.491 514.054 226.753 514.054C225.346 514.054 224.196 514.693 223.531 515.716H223.429C223.122 514.668 222.355 514.054 221.077 514.054C219.798 514.054 218.75 514.668 218.162 515.716H218.034L218.29 514.182H216.832L215.196 524Z" fill="black"/>
<path d="M234.906 524.205C237.514 524.205 239.585 522.236 240.07 519.244C240.575 516.125 239.099 514.054 236.389 514.054C233.781 514.054 231.71 516.023 231.224 519.04C230.725 522.133 232.195 524.205 234.906 524.205ZM234.931 522.849C232.963 522.849 232.374 521.162 232.681 519.244C233.007 517.224 234.292 515.409 236.363 515.409C238.332 515.409 238.92 517.122 238.613 519.04C238.287 521.066 237.002 522.849 234.931 522.849Z" fill="black"/>
<path d="M241.581 524H243.089L244.112 517.787C244.342 516.457 245.544 515.486 246.975 515.486C247.385 515.486 247.794 515.562 247.896 515.588L248.152 514.054C247.973 514.028 247.589 514.028 247.359 514.028C246.183 514.028 245.032 514.693 244.521 515.665H244.419L244.674 514.182H243.217L241.581 524Z" fill="black"/>
<path d="M248.983 527.682C250.312 527.682 251.412 526.991 252.255 525.419L258.277 514.182H256.576L252.562 522.031H252.46L251.054 514.182H249.481L251.45 524L251.028 524.767C250.21 526.256 249.571 526.455 248.522 526.173L247.909 527.503C248.049 527.58 248.471 527.682 248.983 527.682Z" fill="black"/>
<path d="M267.061 527.886C269.4 527.886 271.471 526.812 271.893 524.281L273.555 514.182H272.098L271.842 515.741H271.689C271.446 515.23 271.024 514.054 269.106 514.054C266.626 514.054 264.587 516.023 264.095 519.04C263.584 522.108 265.086 523.847 267.47 523.847C269.381 523.847 270.18 522.722 270.589 522.185H270.717L270.41 524.179C270.129 525.815 268.812 526.557 267.24 526.557C265.437 526.557 265.015 525.617 264.709 525.074L263.354 525.918C263.807 526.947 264.856 527.886 267.061 527.886ZM267.854 522.491C265.949 522.491 265.265 521.06 265.604 519.014C265.936 517.02 267.074 515.409 269.004 515.409C270.832 515.409 271.631 516.892 271.28 519.014C270.922 521.187 269.656 522.491 267.854 522.491Z" fill="black"/>
<path d="M277.544 524.23C279.257 524.23 280.305 523.31 280.714 522.67H280.791L280.561 524H282.069L283.143 517.531C283.655 514.412 281.354 514.054 280.101 514.054C278.618 514.054 276.828 514.565 275.78 516.355L277.109 516.866C277.569 516.151 278.541 515.383 279.973 515.383C281.354 515.383 281.865 516.125 281.66 517.378V517.429C281.532 518.145 280.791 518.094 278.976 518.324C277.109 518.554 275.064 518.963 274.68 521.213C274.373 523.131 275.677 524.23 277.544 524.23ZM277.979 522.875C276.777 522.875 276.01 522.338 276.189 521.29C276.368 520.139 277.493 519.781 278.694 519.628C279.334 519.551 281.072 519.372 281.379 519.065L281.149 520.446C280.944 521.673 279.768 522.875 277.979 522.875Z" fill="black"/>
<path d="M284.823 524H286.331L287.354 517.864C287.584 516.432 288.811 515.409 289.988 515.409C291.138 515.409 291.803 516.151 291.624 517.276L290.499 524H292.033L293.107 517.608C293.311 516.33 294.257 515.409 295.638 515.409C296.712 515.409 297.53 515.972 297.3 517.429L296.201 524H297.709L298.809 517.429C299.192 515.128 298.118 514.054 296.38 514.054C294.973 514.054 293.823 514.693 293.158 515.716H293.056C292.749 514.668 291.982 514.054 290.703 514.054C289.425 514.054 288.377 514.668 287.789 515.716H287.661L287.917 514.182H286.459L284.823 524Z" fill="black"/>
<path d="M304.558 524.205C306.559 524.205 308.17 523.207 308.879 521.724L307.499 521.315C306.942 522.338 305.996 522.849 304.788 522.849C302.896 522.849 301.886 522.006 302.251 519.602H309.391L309.493 518.963C310.113 515.307 308.144 514.054 306.092 514.054C303.44 514.054 301.317 516.151 300.825 519.168C300.32 522.185 301.727 524.205 304.558 524.205ZM302.462 518.298C302.762 516.905 304.213 515.409 305.862 515.409C307.505 515.409 308.349 516.636 308.061 518.298H302.462Z" fill="black"/>
<path d="M319.212 516.381C318.956 514.974 318.061 514.054 316.118 514.054C314.047 514.054 312.309 515.23 312.027 516.892C311.797 518.247 312.462 519.142 314.201 519.577L315.76 519.96C316.732 520.19 317.115 520.651 316.988 521.341C316.86 522.185 315.837 522.875 314.431 522.875C313.203 522.875 312.513 522.338 312.436 521.29L310.928 521.648C311.005 523.31 312.232 524.205 314.252 524.205C316.527 524.205 318.292 522.952 318.573 521.264C318.803 519.883 318.087 519.04 316.399 518.605L314.993 518.247C313.894 517.966 313.434 517.557 313.561 516.815C313.689 515.972 314.686 515.358 315.888 515.358C317.218 515.358 317.627 516.074 317.78 516.764L319.212 516.381Z" fill="black"/>
<path d="M130.716 549.886C133.056 549.886 135.127 548.812 135.549 546.281L137.21 536.182H135.753L135.497 537.741H135.344C135.101 537.23 134.679 536.054 132.762 536.054C130.282 536.054 128.242 538.023 127.75 541.04C127.239 544.108 128.741 545.847 131.125 545.847C133.036 545.847 133.835 544.722 134.245 544.185H134.372L134.066 546.179C133.784 547.815 132.468 548.557 130.895 548.557C129.093 548.557 128.671 547.617 128.364 547.074L127.009 547.918C127.463 548.947 128.511 549.886 130.716 549.886ZM131.509 544.491C129.604 544.491 128.92 543.06 129.259 541.014C129.591 539.02 130.729 537.409 132.659 537.409C134.487 537.409 135.286 538.892 134.935 541.014C134.577 543.187 133.311 544.491 131.509 544.491Z" fill="black"/>
<path d="M142.426 546.205C144.427 546.205 146.038 545.207 146.747 543.724L145.367 543.315C144.811 544.338 143.865 544.849 142.657 544.849C140.764 544.849 139.755 544.006 140.119 541.602H147.259L147.361 540.963C147.981 537.307 146.012 536.054 143.96 536.054C141.308 536.054 139.186 538.151 138.693 541.168C138.188 544.185 139.595 546.205 142.426 546.205ZM140.33 540.298C140.63 538.905 142.081 537.409 143.73 537.409C145.373 537.409 146.217 538.636 145.929 540.298H140.33Z" fill="black"/>
<path d="M151.327 540.094C151.634 538.381 152.836 537.409 154.293 537.409C155.699 537.409 156.39 538.33 156.134 539.864L155.111 546H156.62L157.668 539.761C158.077 537.256 156.927 536.054 154.958 536.054C153.475 536.054 152.427 536.719 151.813 537.716H151.685L151.941 536.182H150.484L148.847 546H150.356L151.327 540.094Z" fill="black"/>
<path d="M163.467 546.205C165.468 546.205 167.079 545.207 167.788 543.724L166.408 543.315C165.852 544.338 164.906 544.849 163.698 544.849C161.805 544.849 160.796 544.006 161.16 541.602H168.3L168.402 540.963C169.022 537.307 167.053 536.054 165.002 536.054C162.349 536.054 160.227 538.151 159.734 541.168C159.229 544.185 160.636 546.205 163.467 546.205ZM161.371 540.298C161.671 538.905 163.122 537.409 164.771 537.409C166.414 537.409 167.258 538.636 166.97 540.298H161.371Z" fill="black"/>
<path d="M169.888 546H171.397L172.419 539.787C172.65 538.457 173.851 537.486 175.283 537.486C175.692 537.486 176.101 537.562 176.204 537.588L176.459 536.054C176.28 536.028 175.897 536.028 175.667 536.028C174.491 536.028 173.34 536.693 172.829 537.665H172.726L172.982 536.182H171.525L169.888 546Z" fill="black"/>
<path d="M179.484 546.23C181.197 546.23 182.246 545.31 182.655 544.67H182.731L182.501 546H184.01L185.084 539.531C185.595 536.412 183.294 536.054 182.041 536.054C180.558 536.054 178.768 536.565 177.72 538.355L179.05 538.866C179.51 538.151 180.481 537.383 181.913 537.383C183.294 537.383 183.805 538.125 183.601 539.378V539.429C183.473 540.145 182.731 540.094 180.916 540.324C179.05 540.554 177.004 540.963 176.621 543.213C176.314 545.131 177.618 546.23 179.484 546.23ZM179.919 544.875C178.717 544.875 177.95 544.338 178.129 543.29C178.308 542.139 179.433 541.781 180.635 541.628C181.274 541.551 183.013 541.372 183.32 541.065L183.089 542.446C182.885 543.673 181.709 544.875 179.919 544.875Z" fill="black"/>
<path d="M192.669 536.182H190.566L190.956 533.83H189.448L189.058 536.182H187.581L187.377 537.46H188.847L187.837 543.597C187.556 545.31 188.783 546.128 190.062 546.128C190.624 546.128 191.008 546.026 191.238 545.949L191.135 544.594C191.008 544.619 190.803 544.67 190.471 544.67C189.806 544.67 189.192 544.466 189.397 543.187L190.349 537.46H192.465L192.669 536.182Z" fill="black"/>
<path d="M197.262 546.205C199.87 546.205 201.941 544.236 202.427 541.244C202.932 538.125 201.455 536.054 198.745 536.054C196.137 536.054 194.066 538.023 193.58 541.04C193.082 544.133 194.552 546.205 197.262 546.205ZM197.288 544.849C195.319 544.849 194.731 543.162 195.038 541.244C195.364 539.224 196.649 537.409 198.72 537.409C200.688 537.409 201.276 539.122 200.97 541.04C200.644 543.066 199.359 544.849 197.288 544.849Z" fill="black"/>
<path d="M203.937 546H205.446L206.468 539.787C206.698 538.457 207.9 537.486 209.332 537.486C209.741 537.486 210.15 537.562 210.252 537.588L210.508 536.054C210.329 536.028 209.946 536.028 209.715 536.028C208.539 536.028 207.389 536.693 206.877 537.665H206.775L207.031 536.182H205.573L203.937 546Z" fill="black"/>
<path d="M218.596 546.23C220.309 546.23 221.357 545.31 221.766 544.67H221.843L221.613 546H223.121L224.195 539.531C224.706 536.412 222.405 536.054 221.152 536.054C219.669 536.054 217.88 536.565 216.831 538.355L218.161 538.866C218.621 538.151 219.593 537.383 221.025 537.383C222.405 537.383 222.917 538.125 222.712 539.378V539.429C222.584 540.145 221.843 540.094 220.027 540.324C218.161 540.554 216.116 540.963 215.732 543.213C215.425 545.131 216.729 546.23 218.596 546.23ZM219.03 544.875C217.829 544.875 217.062 544.338 217.241 543.29C217.419 542.139 218.544 541.781 219.746 541.628C220.385 541.551 222.124 541.372 222.431 541.065L222.201 542.446C221.996 543.673 220.82 544.875 219.03 544.875Z" fill="black"/>
<path d="M225.261 549.682H226.769L227.639 544.491H227.767C228.022 545.028 228.457 546.205 230.349 546.205C232.804 546.205 234.849 544.236 235.36 541.116C235.872 538.023 234.491 536.054 232.011 536.054C230.093 536.054 229.301 537.23 228.892 537.741H228.713L228.968 536.182H227.511L225.261 549.682ZM228.176 541.091C228.534 538.892 229.761 537.409 231.602 537.409C233.519 537.409 234.184 539.02 233.852 541.091C233.494 543.187 232.267 544.849 230.375 544.849C228.559 544.849 227.818 543.315 228.176 541.091Z" fill="black"/>
<path d="M236.23 549.682H237.738L238.608 544.491H238.735C238.991 545.028 239.426 546.205 241.318 546.205C243.772 546.205 245.818 544.236 246.329 541.116C246.84 538.023 245.46 536.054 242.98 536.054C241.062 536.054 240.269 537.23 239.86 537.741H239.681L239.937 536.182H238.48L236.23 549.682ZM239.144 541.091C239.502 538.892 240.73 537.409 242.571 537.409C244.488 537.409 245.153 539.02 244.821 541.091C244.463 543.187 243.235 544.849 241.343 544.849C239.528 544.849 238.786 543.315 239.144 541.091Z" fill="black"/>
<defs>
<linearGradient id="paint0_linear" x1="252.003" y1="332.59" x2="123.001" y2="332.59" gradientUnits="userSpaceOnUse">
<stop stop-color="#FBAB61"/>
<stop offset="1" stop-color="#FA786B"/>
</linearGradient>
<linearGradient id="paint1_linear" x1="252.003" y1="332.59" x2="123.001" y2="332.59" gradientUnits="userSpaceOnUse">
<stop stop-color="#FBAB61"/>
<stop offset="1" stop-color="#FA786B"/>
</linearGradient>
<linearGradient id="paint2_linear" x1="153.469" y1="277.594" x2="172.367" y2="287.919" gradientUnits="userSpaceOnUse">
<stop stop-color="#FB5D6A"/>
<stop offset="1" stop-color="#EF1287"/>
</linearGradient>
<linearGradient id="paint3_linear" x1="177.132" y1="281.394" x2="214.313" y2="301.708" gradientUnits="userSpaceOnUse">
<stop stop-color="#70CEFF"/>
<stop offset="1" stop-color="#A972FE"/>
</linearGradient>
<linearGradient id="paint4_linear" x1="182.158" y1="276.38" x2="182.102" y2="328.009" gradientUnits="userSpaceOnUse">
<stop stop-color="#48C8A8"/>
<stop offset="1" stop-color="#DCF974"/>
</linearGradient>
</defs>
</svg>
